<svg xmlns="http://www.w3.org/2000/svg" viewBox="0 0 388.31 388.31"><defs><style>.cls-1,.cls-2{fill:#fff;}.cls-1{stroke:#fff;stroke-miterlimit:10;stroke-width:2px;}</style></defs><title>logo</title><g id="Warstwa_2" data-name="Warstwa 2"><path class="cls-1" d="M448.93,265.29c.14-3.08.22-6.18.22-9.29a193.81,193.81,0,0,0-3.28-35.56l-29.21-3.54c-.68-2.82-1.43-5.6-2.26-8.36l23.43-17.82a192.2,192.2,0,0,0-20-40.23l-28.35,7.91c-1.71-2.33-3.46-4.61-5.28-6.84L399,126.14A194.84,194.84,0,0,0,365.1,96.6L342,114.73c-2.46-1.5-5-2.93-7.52-4.31l4-29.14A191.55,191.55,0,0,0,295.81,67L281.37,92.59c-2.84-.44-5.71-.81-8.59-1.1l-7.49-28.42c-3.08-.14-6.18-.22-9.29-.22a193.81,193.81,0,0,0-35.56,3.28L216.9,95.34c-2.82.68-5.6,1.43-8.36,2.26L190.72,74.17a192.2,192.2,0,0,0-40.23,20l7.91,28.35c-2.33,1.71-4.61,3.46-6.84,5.28L126.14,113A194.42,194.42,0,0,0,96.6,146.9L114.73,170c-1.5,2.46-2.93,5-4.31,7.52l-29.14-4A191.55,191.55,0,0,0,67,216.19l25.63,14.44c-.44,2.84-.81,5.71-1.1,8.59l-28.42,7.49c-.14,3.08-.22,6.18-.22,9.29a193.81,193.81,0,0,0,3.28,35.56l29.21,3.54c.68,2.82,1.43,5.6,2.26,8.36L74.17,321.28a192.2,192.2,0,0,0,20,40.23l28.35-7.91c1.71,2.33,3.46,4.61,5.28,6.84L113,385.86A194.42,194.42,0,0,0,146.9,415.4L170,397.27c2.46,1.5,5,2.93,7.52,4.31l-4,29.14A191.55,191.55,0,0,0,216.19,445l14.44-25.63c2.84.44,5.71.81,8.59,1.1l7.49,28.42c3.08.14,6.18.22,9.29.22a193.81,193.81,0,0,0,35.56-3.28l3.54-29.21c2.82-.68,5.6-1.43,8.36-2.26l17.82,23.43a192.2,192.2,0,0,0,40.23-20l-7.91-28.35c2.33-1.71,4.61-3.46,6.84-5.28L385.86,399A194.42,194.42,0,0,0,415.4,365.1L397.27,342c1.5-2.46,2.93-5,4.31-7.52l29.14,4A191.55,191.55,0,0,0,445,295.81l-25.63-14.44c.44-2.84.81-5.71,1.1-8.59ZM256,389.21A133.21,133.21,0,1,1,389.21,256,133.21,133.21,0,0,1,256,389.21Z" transform="translate(-61.85 -61.85)"/><polygon class="cls-2" points="214.27 120.2 214.27 199.25 174.36 120.2 174.03 120.36 174.03 120.2 142.89 120.2 142.89 268.11 174.03 268.11 174.03 188.64 214.13 268.04 214.27 267.97 214.27 268.11 245.41 268.11 245.41 120.2 214.27 120.2"/></g></svg>